<svg width="1026" height="301" viewBox="0 0 1026 301" fill="none" xmlns="http://www.w3.org/2000/svg">
<g clip-path="url(#clip0_1_131)">
<path fill-rule="evenodd" clip-rule="evenodd" d="M111.556 226.987L88.52 50.8358L134.591 178.959L126.027 225.509C127.503 225.608 129.029 225.854 130.604 226.248C140.055 228.17 148.767 233.785 154.378 242.652C160.137 251.371 161.761 261.567 159.694 271.026C157.627 280.483 152.015 289.203 143.303 294.965C134.591 300.58 124.402 302.206 114.804 300.138C105.354 298.216 96.6416 292.601 91.0304 283.882C85.2717 275.014 83.7948 264.819 85.7144 255.36C87.7817 245.902 93.3931 237.184 102.105 231.421C105.058 229.5 108.307 228.022 111.556 226.987ZM101.81 276.789C105.501 282.7 111.26 286.394 117.462 287.724C123.811 289.055 130.604 288.021 136.363 284.178C142.122 280.483 145.813 274.721 147.142 268.366C148.471 262.159 147.438 255.36 143.598 249.597C139.907 243.834 134.148 239.992 127.946 238.662C121.597 237.332 114.804 238.514 109.045 242.209C103.286 246.051 99.5947 251.813 98.2658 258.02C96.9368 264.227 97.9706 271.026 101.81 276.789Z" fill="#575756"/>
<path fill-rule="evenodd" clip-rule="evenodd" d="M106.535 2.06885C115.543 36.3535 81.1372 69.1601 49.242 91.6224C45.2551 88.0757 40.3822 83.6423 33.885 77.8791C45.5503 67.239 56.9205 59.2589 68.1429 49.0622C88.5206 30.8855 95.4607 25.7134 106.535 2.06885ZM0.80835 134.921C0.956014 112.755 10.2589 100.489 28.4214 83.0512C34.771 88.2236 39.6439 92.2135 43.6307 95.4645C23.4008 110.095 18.8233 118.075 0.80835 134.921Z" fill="#CEAA61"/>
<path fill-rule="evenodd" clip-rule="evenodd" d="M132.671 0C149.357 53.0525 119.234 84.2336 77.2978 117.04C67.8475 108.174 65.1893 105.661 57.6585 98.8637C96.9369 64.5791 118.643 54.0868 132.671 0ZM43.483 142.606C12.9166 166.103 9.52035 188.417 7.30541 204.821C-13.5151 164.329 13.3596 139.355 47.7653 107.73C49.5371 106.154 51.26 104.578 52.9333 103.001C61.2025 109.799 64.0083 111.868 74.0493 119.553C64.3035 126.941 53.9671 134.626 43.483 142.606Z" fill="#AA8E5A"/>
<path fill-rule="evenodd" clip-rule="evenodd" d="M152.459 28.8167C157.184 45.9591 158.808 66.7958 152.015 84.5291C142.417 109.799 123.073 126.498 103.582 141.867C94.4269 133.296 87.7819 126.941 82.7613 122.065C84.041 121.277 85.4192 120.439 86.8959 119.553C140.941 85.268 145.223 58.3724 152.459 28.8167ZM103.434 141.867C93.0977 134.035 85.5669 128.271 79.808 123.986C39.939 149.847 15.8699 171.718 18.3801 215.313C19.8568 242.208 36.838 269.104 63.4175 284.768C57.2156 272.354 48.6511 242.208 47.1744 228.613C42.5969 185.905 73.1633 165.659 103.434 141.867Z" fill="#8B7556"/>
<path fill-rule="evenodd" clip-rule="evenodd" d="M31.2271 85.5636L171.359 194.919C173.87 192.555 176.675 190.486 179.924 189.008C189.374 184.279 199.711 183.836 208.866 186.939C218.021 190.043 225.995 196.545 230.72 205.855C235.298 215.313 235.741 225.657 232.64 234.82C229.686 243.982 223.042 251.961 213.739 256.69C204.436 261.273 194.1 261.715 184.797 258.612C175.642 255.656 167.668 249.007 163.09 239.696C158.365 230.386 157.922 220.042 161.023 210.879C161.515 209.402 162.057 207.973 162.647 206.594L118.201 190.338L31.2271 85.5636ZM204.731 199.057C198.677 196.988 191.885 197.284 185.683 200.387C179.481 203.491 175.199 208.81 173.131 214.87C171.064 220.928 171.359 227.726 174.461 233.933C177.561 240.139 182.877 244.424 188.931 246.495C194.986 248.563 201.778 248.267 207.98 245.165C214.182 242.061 218.612 236.741 220.531 230.682C222.599 224.623 222.303 217.825 219.202 211.618C216.101 205.412 210.786 201.126 204.731 199.057Z" fill="#575756"/>
<path d="M101.367 158.862C101.367 155.61 104.025 153.098 107.274 153.098C110.522 153.098 113.18 155.61 113.18 158.862C113.18 162.113 110.522 164.773 107.274 164.773C104.025 164.773 101.367 162.113 101.367 158.862Z" fill="white"/>
<path d="M241.499 208.959C243.567 208.811 245.338 210.732 245.486 213.244C245.486 215.756 243.715 217.825 241.647 217.973L225.847 217.825C223.632 217.825 221.86 215.904 221.86 213.392C221.712 210.88 223.484 208.811 225.552 208.811L241.499 208.959Z" fill="#575756"/>
<path d="M385.322 154.585C395.146 156.027 402.873 159.763 408.505 165.792C414.138 171.691 416.954 179.621 416.954 189.583C416.954 202.691 412.173 212.326 402.611 218.487C393.181 224.647 379.363 227.728 361.157 227.728H340.724C336.926 227.728 333.848 226.745 331.49 224.779C329.263 222.681 328.15 219.863 328.15 216.324V116.834C328.15 113.294 327.888 109.362 327.364 105.036C326.84 100.58 325.989 96.7127 324.81 93.4357C332.014 90.0276 342.885 88.3236 357.424 88.3236C374.713 88.3236 387.811 91.0107 396.717 96.385C405.624 101.628 410.077 110.017 410.077 121.553C410.077 129.68 407.916 136.692 403.594 142.591C399.271 148.359 393.181 152.356 385.322 154.585ZM357.227 96.5816C353.56 96.5816 351.137 96.6472 349.958 96.7783V151.439H362.532C370.391 151.57 376.416 149.145 380.607 144.164C384.929 139.052 387.09 132.039 387.09 123.125C387.09 114.343 384.733 107.724 380.018 103.267C375.433 98.81 367.837 96.5816 357.227 96.5816ZM360.96 219.273C382.441 219.273 393.181 209.508 393.181 189.977C393.181 178.573 390.43 170.708 384.929 166.382C379.428 161.925 371.504 159.697 361.157 159.697H349.958V219.273H360.96ZM539.71 214.161C541.281 219.011 543.181 222.681 545.407 225.172C542.395 228.449 538.138 230.087 532.637 230.087C529.1 230.087 526.153 229.366 523.796 227.924C521.438 226.483 519.932 224.385 519.277 221.633L509.257 186.241H461.908L454.05 214.554C453.264 217.962 452.871 220.584 452.871 222.419C452.871 224.779 453.395 226.614 454.443 227.924C450.644 229.366 446.715 230.087 442.655 230.087C438.463 230.087 435.385 229.366 433.421 227.924C431.456 226.614 430.474 224.385 430.474 221.239C430.474 217.962 431.259 213.964 432.831 209.245L472.518 91.4695C478.412 89.2411 484.502 88.127 490.789 88.127C497.6 88.127 501.66 90.6175 502.97 95.5985L539.71 214.161ZM505.721 174.05L485.092 101.694L465.248 174.05H505.721ZM663.354 211.212C664.401 213.44 664.925 215.537 664.925 217.504C664.925 221.567 663.354 224.713 660.21 226.941C657.198 229.039 654.054 230.087 650.78 230.087C646.326 230.087 642.659 229.17 639.777 227.335C637.027 225.368 634.669 222.747 632.705 219.47C630.74 216.062 628.579 211.343 626.221 205.313L618.952 186.437C617.249 182.112 615.612 178.704 614.04 176.213C612.599 173.723 610.438 171.625 607.557 169.921C604.806 168.217 601.073 167.365 596.358 167.365L586.142 167.169V203.15C586.142 212.719 587.19 220.125 589.285 225.368C585.618 228.645 581.492 230.284 576.908 230.284C573.109 230.284 570.031 229.301 567.674 227.335C565.447 225.237 564.334 222.419 564.334 218.88V116.834C564.334 113.294 564.072 109.362 563.548 105.036C563.024 100.58 562.173 96.7127 560.994 93.4357C568.198 90.0276 579.265 88.3236 594.197 88.3236C613.189 88.3236 627.334 91.2073 636.634 96.9749C646.064 102.611 650.78 111.853 650.78 124.698C650.78 134.267 648.029 142.329 642.528 148.883C637.027 155.437 629.496 159.959 619.934 162.45C624.518 163.629 628.251 165.727 631.133 168.742C634.014 171.625 636.699 175.492 639.188 180.342L648.029 200.987C649.732 205.313 651.369 208.459 652.941 210.425C654.644 212.26 656.412 213.243 658.245 213.375C660.341 213.375 662.044 212.654 663.354 211.212ZM586.142 158.91C588.368 159.042 592.101 159.107 597.34 159.107C606.509 158.845 613.713 155.699 618.952 149.669C624.322 143.64 627.007 135.84 627.007 126.271C627.007 106.478 616.594 96.5816 595.769 96.5816C590.922 96.5816 587.713 96.6472 586.142 96.7783V158.91ZM742.38 154.585C752.203 156.027 759.931 159.763 765.563 165.792C771.195 171.691 774.011 179.621 774.011 189.583C774.011 202.691 769.23 212.326 759.669 218.487C750.239 224.647 736.42 227.728 718.214 227.728H697.782C693.983 227.728 690.905 226.745 688.548 224.779C686.321 222.681 685.208 219.863 685.208 216.324V116.834C685.208 113.294 684.946 109.362 684.422 105.036C683.898 100.58 683.047 96.7127 681.868 93.4357C689.072 90.0276 699.943 88.3236 714.481 88.3236C731.771 88.3236 744.868 91.0107 753.775 96.385C762.682 101.628 767.135 110.017 767.135 121.553C767.135 129.68 764.974 136.692 760.651 142.591C756.329 148.359 750.239 152.356 742.38 154.585ZM714.285 96.5816C710.618 96.5816 708.194 96.6472 707.016 96.7783V151.439H719.59C727.448 151.57 733.473 149.145 737.665 144.164C741.987 139.052 744.148 132.039 744.148 123.125C744.148 114.343 741.79 107.724 737.075 103.267C732.491 98.81 724.894 96.5816 714.285 96.5816ZM718.018 219.273C739.498 219.273 750.239 209.508 750.239 189.977C750.239 178.573 747.488 170.708 741.987 166.382C736.486 161.925 728.562 159.697 718.214 159.697H707.016V219.273H718.018ZM877.317 208.262C878.627 209.049 879.609 210.425 880.264 212.391C881.05 214.358 881.443 216.52 881.443 218.88C881.443 221.37 880.984 223.468 880.068 225.172C879.151 226.876 877.841 227.728 876.138 227.728H813.661C809.994 227.728 806.981 226.745 804.624 224.779C802.397 222.681 801.284 219.863 801.284 216.324L801.087 119.39C801.087 109.69 800.04 102.087 797.944 96.5816C800.433 94.3533 802.987 92.9114 805.606 92.256C808.357 91.4695 812.221 91.0763 817.198 91.0763H875.352C877.71 91.0763 878.889 93.0425 878.889 96.9749C878.889 99.5965 878.299 102.284 877.121 105.036C876.073 107.658 874.698 109.362 872.995 110.148C856.36 105.036 839.661 102.284 822.895 101.89V150.456H867.69C868.214 152.029 868.476 153.929 868.476 156.158C868.476 157.731 868.214 159.828 867.69 162.45H823.092V216.914C831.605 216.783 841.036 215.865 851.383 214.161C861.731 212.326 870.375 210.36 877.317 208.262ZM1003.04 205.313C1005 206.1 1006.64 207.41 1007.95 209.245C1009.39 211.081 1010.11 213.178 1010.11 215.537C1010.11 219.339 1008.41 222.747 1005 225.762C1001.6 228.645 997.143 230.087 991.642 230.087C986.01 230.087 981.426 228.449 977.889 225.172C974.353 221.895 970.751 216.717 967.084 209.639L948.812 174.837L918.163 223.402C916.853 225.631 915.347 227.269 913.644 228.318C911.942 229.497 909.78 230.087 907.161 230.087C903.624 230.087 900.939 229.039 899.106 226.941C897.272 224.713 896.159 221.305 895.766 216.717C899.171 215.668 902.184 213.964 904.803 211.605C907.423 209.245 910.304 205.837 913.448 201.381L941.543 161.073L917.181 115.654C915.871 113.163 914.561 111.394 913.251 110.345C912.073 109.165 910.697 108.576 909.125 108.576C907.554 108.576 906.179 109.165 905 110.345C903.952 111.394 903.362 112.639 903.231 114.081C901.136 113.294 899.433 111.984 898.123 110.148C896.944 108.313 896.355 106.151 896.355 103.66C896.355 99.7276 897.796 96.385 900.677 93.6323C903.559 90.7486 907.947 89.3067 913.841 89.3067C919.735 89.3067 924.516 90.9452 928.183 94.2222C931.981 97.4992 935.649 102.677 939.185 109.755L956.081 142.394L983.587 95.5985C984.766 93.5013 986.206 91.9283 987.909 90.8796C989.612 89.6999 991.773 89.1101 994.393 89.1101C997.929 89.1101 1000.61 90.1587 1002.45 92.256C1004.28 94.3533 1005.46 97.6958 1005.98 102.284C1002.45 103.463 999.239 105.364 996.357 107.986C993.607 110.476 990.922 113.688 988.302 117.62L962.565 154.585L988.891 203.74C991.511 208.459 994.327 210.818 997.34 210.818C998.78 210.818 1000.02 210.294 1001.07 209.245C1002.25 208.066 1002.91 206.755 1003.04 205.313Z" fill="#CEA36E"/>
</g>
<defs>
<clipPath id="clip0_1_131">
<rect width="1026" height="301" fill="white"/>
</clipPath>
</defs>
</svg>
